<svg viewBox="0 0 400 371" xmlns="http://www.w3.org/2000/svg">
<path style="fill:#130f30;" d="M.482 0v371.402h400V0h-200zm-16.377 6.076c-.006-.01-.031-.008-.085.004-.353.08-.69.212-1.02.365.142.081.276.145.412.211.295-.28.72-.537.693-.58zm137.54 1.057a10.347 10.347 0 0 1 5.304.98c2.601 1.231 4.325 3.045 5.567 5.852l.888 2.006h17.91c16.146 0 17.98.06 18.592.615.651.589.678 2.52.678 46.61 0 25.297.071 45.995.156 45.995s2.009-1.177 4.278-2.617c7.254-4.604 22.149-11.125 25.414-11.125.558 0 .607-2.265.607-27.431V40.584l-1.678-.64c-11.609-4.435-7.387-22.301 4.928-20.854 11.457 1.347 12.615 18.424 1.44 21.228l-.975.245v53.681l7.334-.182c8.004-.198 13.615.344 18.494 1.786a116.8 116.8 0 0 0 3.42.968l.836.207.004-29.293c.003-16.11.107-29.666.23-30.126l.223-.834H266.416l.883-1.997c4.96-11.215 21.276-7.577 20.572 4.586-.65 11.256-15.359 14.015-20.207 3.791l-1.072-2.257-4.086-.055c-2.247-.03-8.598-.08-14.113-.111l-10.028-.057-.095 28.877-.094 28.879 1.58.63c11.419 4.555 25.073 15.286 36.904 29.007l3.303 3.83 5.014.101c11.077.223 20.32 5.403 29.406 16.475l2.21 2.691h66.434V114.138l-1.41-.423c-8.699-2.606-10.992-13.724-4.107-19.914 8.712-7.833 22.136 1.639 18.295 12.91-1.075 3.154-5.898 7.309-8.485 7.309-.518 0-.58 2.12-.58 20.011 0 18.158-.056 20.057-.613 20.52-.506.42-6.39.542-33.592.695l-32.978.186 2.802 4.642c5.004 8.291 12.014 24.63 12.014 28.002 0 .637 24.549.939 25.473.313.222-.15.832-1.217 1.355-2.371 5.362-11.817 22.902-7.746 22.106 5.132-.813 13.144-18.136 15.16-22.59 2.63l-.496-1.393H335.3v6.963c0 10.754-2.37 16.98-9.18 24.093-1.973 2.062-2.933 1.962 18.58 1.952 13.691-.007 18.448.102 18.848.435.453.376.537 3.066.537 17.31 0 15.733.043 16.879.65 17.079 11.225 3.709 12.168 18.355 1.44 22.369-13.914 5.206-22.3-15.233-8.803-21.455l2.635-1.213-.098-15.477-.098-15.474h-40.158l-2.39 1.254c-11.992 6.295-25.475 9.503-43.268 10.298l-5.594.25-.64 2.483c-3.01 11.68-13.373 21.097-29.815 27.088l-4.781 1.742-.094 41.303-.096 41.302h33.331l.748-1.763c4.749-11.213 20.952-8.616 20.935 3.355-.017 12.18-15.561 15.233-20.734 4.073l-.905-1.952h-17.958c-15.831 0-18.028-.069-18.543-.584-.706-.706-.68.935-.77-47.793-.037-19.969-.135-36.374-.219-36.453-.083-.079-3.766.57-8.183 1.442-4.417.87-10.768 1.87-14.114 2.22-3.346.35-6.458.71-6.918.8l-.836.16v27.849c0 19.418.12 27.848.395 27.848 1.117 0 4.595 2.163 5.754 3.578 5.942 7.25 1.067 17.82-8.18 17.734-11.696-.108-14.83-15.975-4.074-20.629l2.008-.869.006-27.67.008-27.67-9.565.117c-11.098.137-9.983-.185-15.623 4.536l-4.154 3.476-.049 18.963c-.079 30.873-.078 30.85-.646 31.533-.46.554-2.048.614-16.05.614h-15.538l-.434 1.45c-2.879 9.61-17.424 9.484-20.232-.175-3.8-13.073 13.997-19.936 19.82-7.643a92.266 92.266 0 0 0 1.086 2.248c.253.406 27.776-.04 28.04-.455.303-.477.408-43.466.107-43.767-.101-.101-2.15.767-4.551 1.931-23.69 11.481-48.066 4.82-71.844-19.632-15.059-15.486-22.959-31.385-22.959-46.204v-2.144H16.824v18.57c0 15.495.084 18.57.51 18.57 4.315 0 8.97 5.895 8.943 11.329-.066 13.998-19.183 16.018-22.672 2.396-1.48-5.779 2.263-11.634 8.856-13.853.608-.205.65-1.485.65-19.844 0-16.361.086-19.747.526-20.348.51-.699 1.263-.722 24.826-.82l24.297-.102 1.013-3.799c.557-2.09 1.67-5.344 2.473-7.232 1.75-4.112 1.73-3.421.166-5.867-2.095-3.274-4.63-8.5-6.092-12.55l-1.361-3.776-9.688-.1-9.685-.098-.666 1.77c-4.782 12.727-23.457 8.938-22.375-4.54.963-12.001 17.886-14.848 22.01-3.702 1.093 2.955.4 2.77 10.441 2.77h9.053l.002-3.993c.006-10.833 4.6-19.412 14.215-26.539 3.459-2.564 4.273-2.443-17.002-2.488-18.031-.037-18.204-.046-18.848-.82-.597-.72-.65-2.118-.65-17.364v-16.582l-2.223-.861c-11.81-4.58-8.576-22.138 4.08-22.156 12.83-.018 16.268 16.573 4.557 21.984l-2.71 1.25.098 15.307.098 15.306 20.984.112c22.575.117 21.91.164 26.477-1.942 1.473-.679 4.433-1.773 6.578-2.433 8.308-2.557 7.892-2.32 9.32-5.323 3.198-6.722 11.254-16.08 18.162-21.093 14.586-10.588 27.284-12.782 42.864-7.403 1.206.417 2.334.758 2.506.758.172 0 .314-19.805.314-44.012V19.684H133.22l-.7 1.949c-3.978 11.062-20.615 7.99-20.615-3.807a10.68 10.68 0 0 1 9.74-10.693zm93.011 90.4c-1.329.001-2.648.053-3.959.16-11.716.958-24.27 5.512-35.015 12.703l-2.145 1.436 3.258 2.525c4.563 3.535 6.726 5.548 9.176 8.543l2.12 2.594-.837 1.135c-1.082 1.464-.547 1.769-5.684-3.244-22.123-21.591-45.946-20.827-67.252 2.158-1.226 1.322-2.326 2.488-2.445 2.59-.77.663-4.59 6.59-5.34 8.287-6.506 14.71 1.788 27.592 24.922 38.715 5.896 2.834 5.41 2.776 7.303.883 7.439-7.44 19.761.78 15.355 10.244-4.133 8.876-16.53 6.68-17.885-3.166l-.257-1.875-5.998-2.893c-19.732-9.514-29.182-20.248-29.207-33.176l-.004-2.853-2.323.672c-8.609 2.49-18.022 7.024-24.049 11.582-14.567 11.017-16.625 25.453-6.23 43.683 1.884 3.304 1.607 3.326 4.512-.373 1.323-1.685 3.508-4.146 4.855-5.472l2.447-2.41-.244-3.249c-.71-9.412 9.494-14.541 15.87-7.978 7.35 7.57-1.64 19.466-11.206 14.826-2.286-1.109-2.11-1.175-5.052 1.87-20.778 21.5-17.378 47.691 9.703 74.759 26.932 26.92 54.016 30.116 79.123 9.336l1.113-.922-1.67-.203c-.918-.112-3.638-.29-6.045-.395l-4.375-.19-1.138 1.85c-5.018 8.156-17.418 4.7-17.397-4.847.024-10.47 15.285-12.753 18.244-2.729.795 2.69-.355 2.542 19.776 2.541 48.276-.002 76.506-9.044 85.636-27.433 6.303-12.694 2.734-30.65-7.65-38.49-13.547-10.228-41.634-10.315-71.264-.221-10.574 3.6-23.545 6.42-33.802 7.346-5.858.53-5.447-.16-3.38 5.689 1.495 4.223 2.452 9.497 2.454 13.508 0 2.647.03 2.729.838 2.54.46-.106 2.673-.62 4.92-1.144 14.204-3.307 26.57-3.726 38.822-1.316l2.223.437 1.587-1.705c5.827-6.257 16.235-2.18 16.235 6.36 0 12.077-17.587 13.08-18.826 1.074l-.211-2.047-4.131-.822c-9.688-1.932-21.606-1.254-36.785 2.094-4.684 1.033-5.05 1.284-5.918 4.039-2.317 7.349-10.739 13.812-19.909 15.279-1.42.227-1.555.367-2.794 2.943-4.725 9.823-18.038 6.792-18.008-4.1.027-9.955 13.323-12.58 17.992-3.55.323.625.659 1.137.746 1.137.728 0 4.49-.947 6.137-1.545 13.653-4.954 16.927-16.968 9.734-35.713l-1.023-2.668-3.89-.278c-5.31-.38-10.927-1.535-15.155-3.119l-3.533-1.324-2.22 1.06c-8.003 3.823-16.128-4.269-12.376-12.326 4.54-9.749 19.974-4.428 17.353 5.983-.547 2.17-.537 2.179 3.426 3.502 9.61 3.208 22.47 3.315 38.139.316 4.817-.923 12.288-2.858 17.455-4.523 2.145-.691 6.01-1.886 8.592-2.653l4.693-1.392-3.617-3.58c-7.337-7.262-11.25-14.535-12.432-23.108-.199-1.448-.412-1.786-1.427-2.271-8.443-4.03-20.228-14.389-24.772-21.774-.696-1.13-1.516-1.991-1.988-2.087a72.04 72.04 0 0 0-2.272-.403c-11.693-1.897-9.54-19.356 2.305-18.687 8.205.464 11.86 9.756 6.228 15.838l-1.976 2.134 1.68 2.407c3.22 4.61 7.563 8.906 13.757 13.609 1.134.861 8.25 5.347 8.272 5.215.364-2.218 1.087-5.793 1.254-6.207.137-.338-.292-1.14-1.094-2.043-6.17-6.951-1.708-17.23 7.121-16.404 11.93 1.114 11.827 17.623-.117 18.994l-2.293.261-.467 2.66c-2.097 11.96 3.645 24.484 15.117 32.958l2.08 1.535 4.885-.957c26.236-5.145 48.104-1.34 57.715 10.047l1.463 1.732 3.307-1.785c9.89-5.344 23.647-17.676 22.136-19.842-5.888-8.44-2.07-17.407 7.096-16.672 11.829.95 11.001 17.923-.916 18.776l-2.549.181-1.931 2.457c-5.426 6.905-21.592 19.727-24.872 19.727-.173 0 .048.706.489 1.57 2.184 4.282 3.61 10.473 3.873 16.815l.168 4.086 1.021.128c1.706.216 12.592-.68 17.92-1.474 38.965-5.811 52.36-25.858 38.938-58.266-18.598-44.9-49.384-54.854-72.952-23.584-4.615 6.123-8.408 14.67-6.511 14.67 9.498 0 12.546 13.62 3.99 17.832-9.917 4.882-18.256-7.492-10.262-15.23 1.742-1.686 2.155-2.334 2.371-3.7.144-.91.682-2.9 1.192-4.421 1.08-3.216 1.199-3.03-2.633-4.104-3.036-.849-8.333-2.799-11.328-4.17-5.37-2.457-12.87-8.668-15.805-13.088-1.308-1.97-1.334-1.987-3.617-2.226-7.813-.816-11.655-9.643-6.711-15.418 8.398-9.812 22.564 2.398 14.404 12.416l-1.67 2.049 1.682 2.183c4.493 5.84 12.265 10.932 21.559 14.127 6.759 2.323 7.01 2.358 7.783 1.05 5.035-8.523 15.147-17.446 23.736-20.944 4.24-1.726 4.16-1.392 1.205-4.926-16.984-20.322-38.73-32.153-58.662-32.14z"/>
</svg>